<?xml version="1.0" encoding="UTF-8"?>
<!DOCTYPE svg PUBLIC "-//W3C//DTD SVG 1.1//EN" "http://www.w3.org/Graphics/SVG/1.1/DTD/svg11.dtd">
<!-- Creator: CorelDRAW 2020 (64-Bit) -->
<svg xmlns="http://www.w3.org/2000/svg" xml:space="preserve" width="76.7363mm" height="103.896mm" version="1.1" style="shape-rendering:geometricPrecision; text-rendering:geometricPrecision; image-rendering:optimizeQuality; fill-rule:evenodd; clip-rule:evenodd"
viewBox="0 0 752.21 1018.45"
 xmlns:xlink="http://www.w3.org/1999/xlink"
 xmlns:xodm="http://www.corel.com/coreldraw/odm/2003">
 <defs>
  <style type="text/css">
   <![CDATA[
    .fil0 {fill:black}
   ]]>
  </style>
 </defs>
 <g id="Layer_x0020_1">
  <metadata id="CorelCorpID_0Corel-Layer"/>
  <g id="_1184475530832">
   <path class="fil0" d="M358.05 45.75c46.08,0 73.1,-0.25 118.44,14.83 25.37,8.44 46.2,17.74 67.18,30.29 20.93,12.52 51.52,35.37 68.55,52.79 24.69,25.24 56.21,71.13 69.26,103.8l12.35 35.39c26.33,97.54 9.63,187.61 -42.01,273.48 -34.43,57.27 -78.6,122.45 -115.93,178.46 -26.67,40 -52.05,79.07 -78.37,118.55 -5.1,7.65 -75.96,113.29 -77.58,119.35l-7.96 0c-2.13,-7.99 -221.11,-337.63 -251.43,-383.11 -18.97,-28.45 -40.37,-65.79 -52.1,-97.08 -2.54,-6.78 -3.21,-11.36 -5.51,-18.36 -27.17,-82.76 -22.87,-141.71 6.42,-223.79 18.07,-50.64 63.9,-105.62 107.98,-138.68 39.66,-29.74 67.53,-41.51 115.32,-55.75 7.24,-2.16 12.18,-3.56 20.77,-5.09 14.19,-2.52 29.62,-5.1 44.63,-5.1zm22.59 972.7l-9.2 0c-8.51,-0.82 -16.86,-3.91 -24.02,-9.26 -13.31,-9.94 -29.83,-38.49 -39.9,-53.59l-161.11 -244.68c-4.72,-7.06 -8.16,-12.21 -12.74,-19.08 -35.8,-53.71 -95.41,-137.5 -112.94,-199.36 -18.22,-64.3 -20.73,-67.85 -20.73,-136.41 0,-42.31 17.83,-105.3 37.13,-143.88 25.23,-50.44 57.39,-90.91 98.71,-126.06l26.12 -19.64c9.61,-6.96 17.81,-11.35 28.13,-17.62 57.57,-34.94 123.08,-48.86 197.8,-48.86 68.09,0 151.26,28.97 203.2,67.32 55.44,40.93 90.73,79.07 124.34,146.18 2.95,5.9 5.35,9.88 7.81,16.06 36.05,90.31 38.32,171.81 7.55,264.52 -11.06,33.34 -15.15,37.59 -29.29,66.19 -17.36,35.1 -59.99,96.65 -84.07,132.75l-173.85 263.76c-9.9,14.85 -25.67,42.94 -40.24,53.25 -6.84,4.84 -14.69,7.64 -22.71,8.41z"/>
   <path class="fil0" d="M367.99 222.79c51.35,0 83.89,11.38 119.88,47.21 49.89,49.68 56.12,137.26 14.57,194.64 -9.88,13.64 -25.32,29.05 -38.95,38.63 -34.83,24.49 -78.5,32.55 -120.89,23.39 -45.53,-9.83 -86.74,-42.18 -105.34,-83.63 -25.87,-57.65 -18.52,-127.33 25.77,-172.05 26.7,-26.96 63.07,-48.2 104.97,-48.2zm-190.96 141.23c0,26.55 -0.94,37.68 5.94,63.68 4,15.1 8.22,23.31 13.89,35.84 2.96,6.53 4.51,9.88 8.09,15.78 21.38,35.28 53.65,63.09 91.37,79.7 69.74,30.71 145.99,18.62 204.13,-26.73 11.42,-8.91 27.16,-25.51 36.07,-37.53 72.11,-97.28 42.04,-240.22 -74.36,-298.52 -93.52,-46.84 -214.52,-8.72 -265.25,92.18 -8.93,17.75 -19.88,49.19 -19.88,75.6z"/>
  </g>
 </g>
</svg>
