<?xml version="1.0" encoding="UTF-8"?>
<!DOCTYPE svg PUBLIC "-//W3C//DTD SVG 1.1//EN" "http://www.w3.org/Graphics/SVG/1.1/DTD/svg11.dtd">
<!-- Creator: CorelDRAW 2020 (64-Bit) -->
<svg xmlns="http://www.w3.org/2000/svg" xml:space="preserve" width="120.665mm" height="144.51mm" version="1.1" style="shape-rendering:geometricPrecision; text-rendering:geometricPrecision; image-rendering:optimizeQuality; fill-rule:evenodd; clip-rule:evenodd"
viewBox="0 0 547.34 655.49"
 xmlns:xlink="http://www.w3.org/1999/xlink"
 xmlns:xodm="http://www.corel.com/coreldraw/odm/2003">
 <defs>
  <style type="text/css">
   <![CDATA[
    .fil0 {fill:black}
   ]]>
  </style>
 </defs>
 <g id="Layer_x0020_1">
  <metadata id="CorelCorpID_0Corel-Layer"/>
  <g id="_1184298484016">
   <path class="fil0" d="M100.54 655.49l347.03 0c0.36,-0.17 0.82,-0.32 1.12,-0.41 0.3,-0.09 0.75,-0.28 1.12,-0.39l8.83 -1.71c3.12,-0.55 6.12,-1.21 9.4,-2.09 16.16,-4.35 35.89,-14.15 46.18,-25.5 8.68,-9.58 13.15,-12.61 20.49,-26.82 26.27,-50.84 6.36,-158.9 -13.07,-199.47 -20.26,-42.3 -49.07,-77.46 -107.88,-81.96 -27.55,-2.11 -37.54,12.89 -66.03,29.14 -47.06,26.86 -103.49,27.19 -150.01,-0.96 -27.81,-16.82 -38.02,-30.73 -66.97,-27.94 -27.56,2.65 -51.75,14.2 -67.08,27.78 -16.53,14.64 -27.77,32.11 -38.91,55.83 -17.32,36.87 -29.57,117.66 -22.93,163.22 6.47,44.33 36.61,76.55 79.29,87.15 6.05,1.5 14.54,1.86 19.41,4.15z"/>
   <path class="fil0" d="M287.32 0l-34.43 0c-6.4,3.13 -22.12,4.27 -30.66,6.93 -34.33,10.72 -51.81,26.55 -74.18,50 -24.66,25.86 -37.72,71.1 -36.12,108.27 3.57,83.14 71.17,149.15 155.85,150.43 108.13,1.64 188.05,-103.92 149.49,-214.2 -12.24,-35.02 -41.13,-64.42 -71.6,-82.06 -14.58,-8.44 -32.29,-14.59 -49.49,-17.1l-7.75 -1.82c-0.3,-0.11 -0.76,-0.28 -1.12,-0.46z"/>
  </g>
 </g>
</svg>
