<?xml version="1.0" encoding="UTF-8"?>
<!DOCTYPE svg PUBLIC "-//W3C//DTD SVG 1.1//EN" "http://www.w3.org/Graphics/SVG/1.1/DTD/svg11.dtd">
<!-- Creator: CorelDRAW 2020 (64-Bit) -->
<svg xmlns="http://www.w3.org/2000/svg" xml:space="preserve" width="135.45mm" height="99.4708mm" version="1.1" style="shape-rendering:geometricPrecision; text-rendering:geometricPrecision; image-rendering:optimizeQuality; fill-rule:evenodd; clip-rule:evenodd"
viewBox="0 0 4574.1 3359.11"
 xmlns:xlink="http://www.w3.org/1999/xlink"
 xmlns:xodm="http://www.corel.com/coreldraw/odm/2003">
 <defs>
  <style type="text/css">
   <![CDATA[
    .fil0 {fill:black}
   ]]>
  </style>
 </defs>
 <g id="Layer_x0020_1">
  <metadata id="CorelCorpID_0Corel-Layer"/>
  <g id="_1184473172304">
   <path class="fil0" d="M142.94 3019.62l0 -151.87 1527.68 0c2.81,33.83 40.08,113.49 52.32,144.22 19.55,49.08 26.19,105.93 90.62,105.93l946.98 0c64.26,0 72.71,-56.8 90.68,-105.86 12.37,-33.78 49.21,-107.66 52.26,-144.28l1527.68 0c0,161.94 29.8,348.42 -214.41,348.42l-3859.4 0c-132.56,0 -214.41,-65.66 -214.41,-196.54zm4431.16 -231.12l0 284.72c0,130.67 -140.56,285.88 -303.75,285.88l-3966.6 0c-163.19,0 -303.75,-155.22 -303.75,-285.88l0 -284.72c9.97,-64.25 44.91,-72.63 151.88,-72.63l0 -2501.46c0,-100.22 104.67,-214.41 214.41,-214.41l3841.53 0c109.74,0 214.41,114.19 214.41,214.41l0 2501.46c106.96,0 141.91,8.38 151.87,72.63zm-2751.61 79.24l929.11 0c-11.57,21.87 -33.28,68.76 -35.74,98.27l-857.64 0c-2.46,-29.51 -24.17,-76.4 -35.74,-98.27zm-1527.68 -2590.8c0,-96.01 28.67,-134.01 125.07,-134.01l3734.33 0c96.4,0 125.07,38 125.07,134.01l0 2438.92 -3984.47 0 0 -2438.92z"/>
   <path class="fil0" d="M562.83 437.76c0,-20.59 6.21,-26.8 26.8,-26.8l3394.84 0c20.59,0 26.8,6.22 26.8,26.8l0 2010.1 -3448.44 0 0 -2010.1zm-142.94 -98.27l0 2188.78c0,43.21 28.26,71.47 71.47,71.47l3591.38 0c43.21,0 71.47,-28.26 71.47,-71.47l0 -2188.78c0,-43.22 -28.26,-71.47 -71.47,-71.47l-3591.38 0c-43.22,0 -71.47,28.26 -71.47,71.47z"/>
   <path class="fil0" d="M1366.87 1134.59c27.42,0 34.84,-6.99 51.39,-20.08 130.11,-102.82 135.14,-135.78 317.83,-227.13 413.71,-206.86 916.49,-162.58 1283.53,113.19 33.23,24.96 52.06,37.97 82.59,69.28 135.98,139.41 176.48,3.4 176.48,2.2 0,-109.57 -316.78,-287.7 -396.05,-327.59 -446.97,-224.94 -1086.11,-164.69 -1468.82,178.01 -30.18,27.03 -81.14,62.87 -102.35,94.63 -33.54,50.22 4.55,117.49 55.39,117.49z"/>
   <path class="fil0" d="M1563.42 1322.2c0,64.45 44.01,71.47 80.4,71.47 46.94,0 88.87,-60.27 126.25,-88.16 312.57,-233.27 721.61,-229.67 1037.73,5.17 32.67,24.27 92.74,91.92 131.42,91.92 35.5,0 71.47,-30.56 71.47,-89.34 0,-42.8 -153.07,-153.53 -195.92,-179.3 -29.35,-17.65 -52.12,-29.57 -86.97,-47.03 -279.35,-140 -602.43,-139.85 -881.49,0 -59.07,29.61 -282.89,153.22 -282.89,235.27z"/>
   <path class="fil0" d="M2188.78 1992.24c0,-151.62 196.54,-149.26 196.54,0 0,114.71 -196.54,118.94 -196.54,0zm-151.88 -17.87c0,221.94 259.56,341.76 417.92,185.64 168.21,-165.84 61.47,-426.85 -185.64,-426.85 -118.78,0 -232.28,119.37 -232.28,241.21z"/>
   <path class="fil0" d="M1831.43 1572.35c0,29.75 -4.13,89.34 71.47,89.34 41.03,0 50.56,-21.32 74.22,-41.92 171.58,-149.41 439.11,-147.32 615.1,-4.18 39.86,32.42 29.2,46.09 96.85,46.09 47.36,0 53.6,-55.64 53.6,-89.34 0,-63.04 -238.7,-214.41 -437.76,-214.41 -121.81,0 -198.81,17.67 -294.83,62.52 -38.2,17.84 -178.66,109.63 -178.66,151.89z"/>
   <path class="fil0" d="M3466.31 3028.56c0,123.74 151.88,99.4 151.88,17.87 0,-54.14 -64.78,-112.04 -123.31,-60.77 -7.58,6.64 -28.57,34.16 -28.57,42.9z"/>
   <path class="fil0" d="M955.92 3028.56c0,120.57 151.87,106.86 151.87,8.93 0,-35.6 -61.5,-105.97 -123.31,-51.84 -7.58,6.64 -28.57,34.16 -28.57,42.9z"/>
   <path class="fil0" d="M375.22 3037.49c0,66 72.49,100.57 121.52,59.18 56.18,-47.43 15.73,-130.65 -41.12,-130.65 -43.32,0 -80.41,29.58 -80.41,71.47z"/>
   <path class="fil0" d="M4198.88 3046.42c0,-43.32 -29.58,-80.41 -71.47,-80.41 -66,0 -100.57,72.49 -59.18,121.52 47.43,56.18 130.65,15.73 130.65,-41.12z"/>
   <path class="fil0" d="M670.04 3037.49c0,111.67 142.94,95.61 142.94,0 0,-89.84 -142.94,-100 -142.94,0z"/>
   <path class="fil0" d="M3761.13 3037.49c0,95.75 142.94,111.54 142.94,0 0,-100.71 -142.94,-89.09 -142.94,0z"/>
  </g>
 </g>
</svg>
