<?xml version="1.0" encoding="UTF-8"?>
<!DOCTYPE svg PUBLIC "-//W3C//DTD SVG 1.1//EN" "http://www.w3.org/Graphics/SVG/1.1/DTD/svg11.dtd">
<!-- Creator: CorelDRAW 2020 (64-Bit) -->
<svg xmlns="http://www.w3.org/2000/svg" xml:space="preserve" width="135.45mm" height="117.594mm" version="1.1" style="shape-rendering:geometricPrecision; text-rendering:geometricPrecision; image-rendering:optimizeQuality; fill-rule:evenodd; clip-rule:evenodd"
viewBox="0 0 792.51 688.04"
 xmlns:xlink="http://www.w3.org/1999/xlink"
 xmlns:xodm="http://www.corel.com/coreldraw/odm/2003">
 <defs>
  <style type="text/css">
   <![CDATA[
    .fil0 {fill:black}
   ]]>
  </style>
 </defs>
 <g id="Layer_x0020_1">
  <metadata id="CorelCorpID_0Corel-Layer"/>
  <path class="fil0" d="M704.56 647.89l-1.95 13.16 -55.59 0.02c-4.13,-2.58 -4.17,-8.21 -4,-13.26l61.54 0.08zm-616.04 -0.08l60.98 -0.01c0.18,5.05 0.14,10.68 -4,13.27l-55.72 -0.12 -1.26 -13.15zm-62.11 -211.22l-26.41 -0.1 792.51 0 -26.41 0.1 0.01 184.71 -6.1 0.1 -727.5 0.02 -6.09 -0.15 0 -184.68zm-26.41 -17.76l0 220.05c7.33,9.63 11.27,9.02 26.31,8.94 11.17,-0.06 22.34,-0.01 33.51,-0.02 4.62,10.99 3.58,30.12 11.42,36.46 7.61,6.15 89.84,3.44 94.06,1.21 9.07,-4.79 8.5,-25.45 12.21,-37.29l437.48 0c12.69,40.43 -9.12,39.28 58.33,39.28 10.59,0 39.92,2.32 47.07,-2.55 8.6,-5.86 7.97,-26.36 12.29,-37.12 11.17,0.01 22.34,-0.04 33.51,0.02 15.04,0.07 18.98,0.69 26.31,-8.94l0 -220.05c-6.2,-6.81 -5.46,-8.58 -18.49,-8.82l-179.39 0.05c-1.81,-30.65 -0.34,-93.66 -0.24,-129.78 0.04,-13.01 1.48,-28.99 -13.92,-28.36 -15.05,0.61 -12.51,18.3 -12.49,31.46 0.03,36.38 1.54,95.01 -0.22,126.61 -95.14,1.87 -192.22,0.08 -287.58,0.08l-216.7 0c-15.34,0 -52,-2.93 -59.5,4.19l-3.96 4.57z"/>
  <path class="fil0" d="M562.37 1.26c-43.19,5.19 -87.73,22.25 -117.35,50.7 -4.66,4.47 -11.65,7.91 -13.94,14.1 -3.37,9.11 1.76,16.49 8.77,17.84 9.94,1.91 20.36,-10.97 34.1,-21.56 65.2,-50.28 161.43,-47.02 227.67,7 4.36,3.55 10.51,10.89 14.92,12.99 8.42,4.01 16.74,0.16 18.74,-6.72 3.09,-10.66 -4.49,-14.82 -8.56,-18.99 -31.72,-32.51 -98.46,-63.27 -164.34,-55.36z"/>
  <path class="fil0" d="M237.75 507.83c0,-24.76 26.4,-25.08 26.4,0l0 43.34c0,23.49 -26.4,23.35 -26.4,0l0 -43.34zm5.4 -43.88c-13.88,3 -24.5,12.37 -29.07,24.24 -4.9,12.71 -2.73,36.03 -2.75,50.6 -0.02,19.1 -0.17,31.3 10.26,43.08 7.45,8.4 22.59,15.91 39.25,11.83 33.51,-8.21 29.7,-40.8 29.73,-75.04 0.02,-17.78 -0.2,-31.11 -9.9,-42.29 -6.94,-8 -21.65,-15.86 -37.52,-12.43z"/>
  <path class="fil0" d="M380.33 489.96c20.07,-4.44 15.93,23.99 15.93,34.89 -0,13.88 4.56,39.81 -9.74,43.01 -20.45,4.58 -16.66,-20.86 -16.66,-35.27 0,-16.5 -4.34,-39.36 10.48,-42.63zm-5.36 -25.85c-35.88,8.55 -31.5,38 -31.53,74.68 -0.02,19.26 -1.16,30.25 10.2,42.59 21.95,23.84 56.58,14.14 66.53,-12.53 4.12,-11.04 2.49,-36.91 2.5,-50.19 0.02,-19.8 0.72,-30.36 -10.15,-42.61 -8.1,-9.14 -22.39,-15.56 -37.55,-11.95z"/>
  <path class="fil0" d="M512.09 490.06c19.35,-5.34 16.26,21.28 16.26,34.8 -0,14.25 4.56,40.15 -10.21,43.1 -19.79,3.96 -16.2,-20.05 -16.19,-35.36 0,-15.96 -4.27,-38.56 10.15,-42.54zm-5.28 -25.78c-34.7,8.95 -31.3,36.71 -31.33,74.51 -0.02,19.43 -0.83,30.13 9.76,42.61 19.06,22.47 56.9,15.69 66.92,-12.05 4.26,-11.8 2.6,-36.8 2.62,-50.69 0.02,-18.94 0.75,-30.88 -10.61,-42.63 -8.1,-8.38 -20.88,-16 -37.34,-11.76z"/>
  <path class="fil0" d="M115.84 490.06c19.35,-5.34 16.26,21.28 16.26,34.8 -0,14.25 4.56,40.15 -10.21,43.1 -19.79,3.96 -16.2,-20.05 -16.19,-35.36 0,-15.96 -4.27,-38.56 10.15,-42.54zm-5.28 -25.78c-34.7,8.95 -31.3,36.71 -31.33,74.51 -0.02,19.43 -0.83,30.13 9.76,42.61 8.1,9.55 22.8,16.05 38.91,12.53 36.02,-7.87 30.59,-46.57 30.62,-75.26 0.02,-18.94 0.75,-30.88 -10.61,-42.63 -8.1,-8.38 -20.88,-16 -37.34,-11.76z"/>
  <path class="fil0" d="M570.61 106.77c31.79,-4.38 57.92,5.87 80.56,23.85 5.38,4.28 13.8,15.31 24.47,6.5 17.43,-14.41 -16.49,-33.93 -25.47,-39.53 -51.33,-31.99 -117.9,-20.03 -158.96,19.17 -8.12,7.76 -5.34,20.34 4.38,22.76 11.23,2.79 17,-7.5 23.3,-12.09 13.78,-10.04 30.44,-17.73 51.71,-20.66z"/>
  <path class="fil0" d="M625.34 502.57l95.97 -0c25,0 24.57,-26.42 0,-26.42l-95.97 0c-23.83,-0 -24.15,26.42 0,26.42z"/>
  <path class="fil0" d="M625.34 555.38l95.97 0c24.61,0 24.92,-26.42 0,-26.42l-95.97 0c-23.61,0 -24.18,26.42 0,26.42z"/>
  <path class="fil0" d="M605.69 195.16c13.74,-32.08 -37.18,-51.45 -48.99,-19.14 -11.94,32.64 35.38,50.91 48.99,19.14z"/>
 </g>
</svg>
