<?xml version="1.0" encoding="UTF-8"?>
<!DOCTYPE svg PUBLIC "-//W3C//DTD SVG 1.1//EN" "http://www.w3.org/Graphics/SVG/1.1/DTD/svg11.dtd">
<!-- Creator: CorelDRAW 2020 (64-Bit) -->
<svg xmlns="http://www.w3.org/2000/svg" xml:space="preserve" width="133.716mm" height="133.716mm" version="1.1" style="shape-rendering:geometricPrecision; text-rendering:geometricPrecision; image-rendering:optimizeQuality; fill-rule:evenodd; clip-rule:evenodd"
viewBox="0 0 1842.12 1842.12"
 xmlns:xlink="http://www.w3.org/1999/xlink"
 xmlns:xodm="http://www.corel.com/coreldraw/odm/2003">
 <defs>
  <style type="text/css">
   <![CDATA[
    .fil0 {fill:black}
   ]]>
  </style>
 </defs>
 <g id="Layer_x0020_1">
  <metadata id="CorelCorpID_0Corel-Layer"/>
  <g id="_1184304640016">
   <path class="fil0" d="M464.13 762.75c0,29.23 31.15,86.21 43.86,107.25 45.46,75.26 65.36,103.47 126.3,175.92l131.09 135.16 105.31 85.38c50.44,37.96 85.12,58.78 140.34,86.32 31.89,15.91 65.83,36.67 108.07,7.37 39.45,-27.36 151.28,-172.85 197.73,-172.85 48.32,0 60.11,25.93 98.04,63.86l147.51 147.51c43.26,43.26 96.23,86.33 28.8,152.93l-92.94 94.15c-125.27,162.24 -316.61,71.83 -472.34,8.77 -77.48,-31.37 -224.8,-123.59 -292.96,-174.77l-76.6 -60.12c-9.29,-7.3 -16.53,-13.46 -25.66,-21.12 -35.56,-29.82 -113.7,-108.52 -142.35,-138.29l-84.25 -99.24c-28.4,-35.08 -54.56,-70.61 -80.27,-106.82 -101.76,-143.3 -215.89,-364.86 -215.89,-546.87 0,-105.2 82.83,-163.78 161.01,-241.96 96.5,-96.51 114.54,-52.76 228.47,61.16 27.34,27.34 112.22,109.41 130.2,132.45 54.86,70.33 14.97,94.76 -47.45,157.18l-97.3 96.99c-10.64,12.92 -18.74,27.1 -18.74,49.63zm-464.13 -255.45c0,184.8 95.94,382.02 168.89,503.92 80.9,135.18 177.82,258.96 288.95,369.47l59.29 59.44c50.73,48.84 152.85,127.86 208.93,165.25 17.52,11.68 31.77,21.14 49.64,33.11 140.44,94.05 377.06,203.64 541.13,203.64 88.28,0 160.87,-22.8 218.64,-79.98l44.83 -48.71c48.5,-49.01 102.27,-91.83 132.1,-148.54 40.86,-77.68 8.48,-159.48 -45.66,-212.99l-205.1 -205.06c-59.4,-59.42 -137.86,-94.95 -221.99,-43.9l-171.08 159.93c-24.73,-16.56 -52.41,-26.4 -78.44,-43.88 -162.01,-108.84 -291.78,-241.44 -392.23,-406.5 -8.78,-14.43 -14.56,-28 -22.24,-42.52 14.15,-9.48 140.22,-135.44 156.88,-163.34 24.05,-40.27 26.62,-62.67 26.62,-106.51 0,-83.51 -108.46,-171.42 -162.8,-225.77 -42.77,-42.77 -77.45,-79.59 -122.23,-118.83 -11.1,-9.73 -15.91,-13.54 -28.65,-21.73 -64.54,-41.51 -121.65,-33.34 -184.08,-1.91 -32.34,16.28 -97.16,87.07 -127.37,117.28 -42.66,42.66 -56.4,51.85 -90.89,103.4 -23.36,34.91 -43.13,96.12 -43.13,154.75z"/>
   <path class="fil0" d="M967.83 43.18c0,20.19 -1.71,34.68 17.83,50.53 9.51,7.71 21.76,11.12 36.37,14 184.22,36.32 336.05,115.28 468.39,247.59 8.8,8.8 17.36,16.2 24.82,25.55 9.25,11.59 14.52,16.06 23.59,26.78 27.37,32.36 65.47,83.99 85.05,120.03l52.73 101.98c35.08,78.74 38.89,123.87 58.18,197.27 20.28,77.2 107.32,46.08 107.32,0.61 0,-44.88 -35.07,-156.92 -52.92,-202.53 -23.1,-59.02 -50.29,-117.66 -84.46,-170.99 -26.48,-41.32 -57.97,-81.71 -88.74,-119.94 -25.3,-31.43 -97.24,-100.08 -129.6,-125.86 -122.82,-97.82 -263.6,-169.41 -418.75,-200.09 -13.95,-2.76 -27.89,-6.94 -41.27,-8.12l-13.26 0c-10.02,1.04 -19.59,4.77 -28.44,13.26 -8.62,8.27 -16.85,14.93 -16.85,29.92z"/>
   <path class="fil0" d="M1446.35 888.68c33.07,0 61.16,-13.43 61.16,-50.37 0,-56.43 -40.81,-151.71 -61.12,-190.73 -52.52,-100.9 -150.03,-201.33 -251.87,-251.83 -55.35,-27.45 -131.58,-61.14 -197.91,-61.14 -25.98,0 -60.83,38.53 -37.43,80.59 28.1,50.5 103.61,-6.62 291.82,150.73l32.91 35.45c6.19,7.69 10.45,10.51 17.05,18.93 39.01,49.8 75.5,119.1 91.5,181.94 6.46,25.37 11.61,86.43 53.89,86.43z"/>
  </g>
 </g>
</svg>
