<?xml version="1.0" encoding="UTF-8"?>
<!DOCTYPE svg PUBLIC "-//W3C//DTD SVG 1.1//EN" "http://www.w3.org/Graphics/SVG/1.1/DTD/svg11.dtd">
<!-- Creator: CorelDRAW 2020 (64-Bit) -->
<svg xmlns="http://www.w3.org/2000/svg" xml:space="preserve" width="144.51mm" height="144.51mm" version="1.1" style="shape-rendering:geometricPrecision; text-rendering:geometricPrecision; image-rendering:optimizeQuality; fill-rule:evenodd; clip-rule:evenodd" viewBox="0 0 1060.6 1060.6"
  xmlns:xlink="http://www.w3.org/1999/xlink"
  xmlns:xodm="http://www.corel.com/coreldraw/odm/2003">
  <defs>
    <style type="text/css">
      <![CDATA[
    .fil0 {fill:black}
    .fil1 {fill:white}
   ]]>
    </style>
  </defs>
  <g id="Layer_x0020_1">
    <metadata id="CorelCorpID_0Corel-Layer"/>
    <path class="fil0" d="M123.84 636.32c0,-18.38 -2.06,-31.95 15.48,-34.84l241.83 -0.51c56.9,0 60.83,-5.96 60.84,35.34l-318.15 0zm107.04 -123.7l104.85 -0.01 -0.15 53.02 -105.8 -0 1.1 -53.01zm-195.41 -388.9l494.89 -0.01 0.06 353.56 -494.95 -0.36 -0.01 -353.19zm88.53 -88.39l494.8 0.54 -0.41 352.91 -52.11 -0.12c-2.15,-21.04 -0.51,-153 -0.51,-185.66 0,-104.81 11.68,-114.64 -70.69,-114.64 -123.46,0 -246.92,-0.08 -371.08,0l-0.01 -53.03zm-124 80.74l0 369.62c0.32,0.49 0.67,1.16 0.88,1.52l2.48 4.43c1.12,1.98 1.13,2.19 2.32,4.02 6.1,9.34 13.88,14.94 25.34,16.45 14.46,1.91 38.46,0.5 53.91,0.5 36.04,0 72.76,-0.69 109.42,0.1l0.18 52.71c-29.65,1.02 -65.72,-4.92 -85.82,11.48 -19.3,15.74 -24.1,46.04 -19.93,77.72 2.35,17.9 15.94,17.22 33.44,17.12l142.44 -0.02c2.42,20.11 -6.49,53.37 18.95,52.58 23.82,-0.74 15.4,-31.57 17.53,-52.39 31.52,-1.18 64.87,-0.19 96.59,-0.19 44.55,0 77.25,7.55 79.52,-19.05 9.22,-108.11 -61,-82.95 -106,-87.61l0.8 -52.19c43.34,-2.7 95.36,-0.38 139.61,-0.27 25.77,0.06 42.22,-1.72 50.71,-20.69 5.71,-12.76 3.42,-50.97 3.4,-67.36 100.53,-5.51 88.38,27.59 88.38,-194.77 17.16,-0 35.43,0.79 34.98,-18.27 -0.43,-18.09 -17.36,-17.09 -34.68,-17.07 -1.95,-35.52 -0.31,-75.59 -0.31,-111.61 0,-69.35 4.96,-60.85 -26.95,-82.86l-511.29 0c-8.69,5.5 -9.67,2.87 -17.53,11.39 -17.46,18.93 -6.93,45.14 -10.39,76.59 -18.26,1.5 -39.28,-1.29 -56.95,0.85 -21.6,2.62 -26.32,19.87 -31.03,27.24z"/>
    <path class="fil0" d="M654.02 1012.95c0,-16.94 6.93,-23.03 23.36,-23.04l306.58 0c25.68,0 23.93,16.6 23.44,35.33l-353.25 0.01 -0.13 -12.31zm159.13 -253.67l35.26 -0.11 -0.22 195.29 -35.12 -0.74 0.08 -194.44zm3.84 -138.2c32.04,-9.07 58.28,12.21 64.79,36.32 8.86,32.82 -12.89,58.51 -36.92,65.32 -65.15,18.45 -97.19,-82.03 -27.87,-101.64zm-186.36 439.51l400.23 0c7.72,-5.91 11.91,-10.84 12.15,-24.77 0.17,-10.04 0.45,-23.5 -0.58,-33.3 -2.2,-20.97 -14.11,-33.75 -27.42,-41.37 -19.9,-11.4 -101.45,-6.59 -130.73,-6.59 -3,-30.47 -0.53,-136.2 -0.53,-179.83 -0.01,-36.46 -4.36,-26.44 14.37,-46.49 19.4,-20.76 27.62,-58.37 14.06,-90.96 -20.39,-48.97 -61.03,-46.31 -63.71,-55.2 0,-82.86 0,-165.72 0,-248.58 0,-54.56 14.38,-131.07 -46.94,-138.44 -9.71,-1.17 -53.01,-1.66 -61.76,-0.02 -19.29,3.61 -19.29,29.43 -1.5,33.79 16.13,3.95 44.78,-1.97 60.76,1.74 18.65,4.33 14.08,27.53 14.08,47 -0.01,50.3 2.04,285.83 -0.5,307.18 -19.19,7.69 -26.38,8.92 -39.9,20.22 -10.84,9.05 -18.29,20.04 -23.9,34.1 -13.31,33.38 -3.39,72.12 16.53,91.17 17.63,16.86 12.35,18.5 12.35,48.63 -0,42.28 2.43,146.64 -0.56,175.7 -33.65,-0.04 -75.45,-2.19 -108.14,0.25 -17.62,1.32 -27.72,8.32 -36.45,17.47 -18.12,18.99 -8.15,32.54 -17.32,35.28 -35.93,-0.03 -296.04,3.31 -306.58,-2.97 -13.16,-7.84 -8.02,-52.25 -8.02,-68.3l0.05 -153.42c-1.06,-30.55 -32.95,-29.16 -35.24,-4.04l-0.16 155.38c0,38.18 -10.2,100.01 45.5,107.89 20.68,2.93 269.77,-0.11 306.54,0.95 6.74,9.54 4.46,10.23 13.32,17.52z"/>
    <path class="fil0" d="M1060.6 693.55l0 -44.53c-4.36,-8.99 -10.8,-79.78 -53.9,-124.91 -7.06,-7.4 -17.78,-26 -34.13,-17.8 -19.55,9.79 -3.63,29.79 4.19,37.42 9.4,9.17 16.74,21.04 24.11,33.85 41.16,71.6 28.73,158.56 -24.34,222.9 -3.95,4.79 -10.98,9.62 -12.6,16.47 -4.01,17.02 15.07,31 30.39,15.75 61.29,-61.02 58.29,-122.12 66.28,-139.16z"/>
    <path class="fil0" d="M695.9 530.3c10.21,-18.2 -13.2,-35.24 -28.36,-20.15 -84.05,83.69 -87.86,215.63 -12.22,309.38 6.27,7.78 21.65,29.99 37.79,14.5 14.81,-14.21 -6.74,-32.27 -12.84,-39.42 -43.07,-50.46 -54.61,-126.47 -31.96,-189.79 17.14,-47.91 41.3,-63.3 47.59,-74.52z"/>
    <path class="fil0" d="M949.71 705.31c-10.19,35.41 -21.89,39.22 -33.07,56 -6.96,10.46 -2.56,24.75 10.01,27.31 27.94,5.7 75.73,-77.85 59.41,-150.72 -5.78,-25.82 -14.68,-43.16 -27.85,-61.15 -31.77,-43.39 -46.62,-13.01 -44.25,-0.89 1.18,6.04 5.82,10.48 8.81,13.54 27.6,28.21 38.39,76.08 26.93,115.9z"/>
    <path class="fil0" d="M745.71 582.42c10.24,-18.15 -10.44,-39.51 -28.95,-20.98 -56.56,56.58 -57.82,147.67 -12.23,206.87 32.31,41.96 45.74,9.97 42.92,-1.19 -2.48,-9.82 -23.13,-24.08 -33.22,-54.09 -27.14,-80.68 29.84,-127.7 31.49,-130.61z"/>
    <path class="fil1" d="M-0 116.08c4.71,-7.37 9.43,-24.62 31.03,-27.24 17.67,-2.14 38.69,0.65 56.95,-0.85 3.46,-31.45 -7.07,-57.66 10.39,-76.59 7.86,-8.52 8.84,-5.9 17.53,-11.39l-115.91 0 0 116.08z"/>
    <path class="fil0" d="M336.86 428.8c4.42,19.48 37.13,15.51 33.73,-7.86 -3.28,-22.61 -39.31,-16.73 -33.73,7.86z"/>
    <path class="fil0" d="M195.41 428.8c3.85,19.54 39.43,14.85 33.53,-9.31 -4.72,-19.31 -38.59,-16.41 -33.53,9.31z"/>
    <path class="fil0" d="M265.61 426.73c2,21.04 36.19,18.02 34.27,-3.78 -2.01,-22.81 -36.56,-20.22 -34.27,3.78z"/>
  </g>
</svg>
