<?xml version="1.0" encoding="UTF-8"?>
<!DOCTYPE svg PUBLIC "-//W3C//DTD SVG 1.1//EN" "http://www.w3.org/Graphics/SVG/1.1/DTD/svg11.dtd">
<!-- Creator: CorelDRAW 2020 (64-Bit) -->
<svg xmlns="http://www.w3.org/2000/svg" xml:space="preserve" width="135.45mm" height="135.45mm" version="1.1" style="shape-rendering:geometricPrecision; text-rendering:geometricPrecision; image-rendering:optimizeQuality; fill-rule:evenodd; clip-rule:evenodd" viewBox="0 0 2804.84 2804.84"
  xmlns:xlink="http://www.w3.org/1999/xlink"
  xmlns:xodm="http://www.corel.com/coreldraw/odm/2003">
  <defs>
    <style type="text/css">
      <![CDATA[
    .fil0 {fill:black}
   ]]>
    </style>
  </defs>
  <g id="Layer_x0020_1">
    <metadata id="CorelCorpID_0Corel-Layer"/>
    <g id="_1184474075616">
      <path class="fil0" d="M328.69 2355.63c0,-62.47 58.05,-120.52 120.52,-120.52 62.47,0 120.52,58.05 120.52,120.52 0,61.46 -59.06,120.52 -120.52,120.52 -62.47,0 -120.52,-58.05 -120.52,-120.52zm1012.71 -2355.63l142.52 0c138.16,7.02 274.87,34.67 403.75,84.49 77.78,30.06 293.98,127.94 331.01,178.47 58.8,-39.37 83.17,-43.83 153.39,-43.83 144.04,0 290.21,187.26 169.82,367.04 20.36,14.92 86.6,129.16 102.32,160.63 123.1,246.38 160.63,408.7 160.63,704.93 0,191.95 -66.94,420.06 -131.46,547.84 -39.09,77.42 -75.14,146.68 -125.17,214.48 -161.19,218.48 -310.26,339.18 -552.29,461.18 -162.36,81.84 -356.62,124.68 -552.22,129.61l-76.25 0c-155.59,-3.9 -309.52,-31.72 -446.33,-82.96 -69.39,-25.99 -300.17,-132.5 -334.96,-179.99 -58.8,39.37 -83.17,43.83 -153.39,43.83 -144.04,0 -290.21,-187.26 -169.83,-367.04 -48.27,-35.37 -153.98,-265.53 -179.99,-334.96 -49.99,-133.47 -77.76,-281.59 -82.96,-431.15l0 -103.64c5.25,-150 33.27,-298.37 84.46,-431.77 18.52,-48.25 127.73,-320.03 194.93,-320.03 16.48,0 31.25,-0.92 47.13,18.61 31.95,39.29 -2.4,74.36 -17.43,98.74 -48.04,77.95 -58.19,106.32 -95.44,183.95l536.86 0c21.9,-94.03 115.09,-175.3 208.17,-175.3 1.71,-76.68 81.8,-326.14 111.84,-397.63l67.8 -134.89c13.07,-20.86 26.37,-39.53 39.49,-59.12 -120.47,10.02 -322.53,93.33 -425.58,155.12 -30.64,18.37 -101.97,69.49 -122.25,69.49 -35.74,0 -60.26,-23.43 -60.26,-54.78 0,-39.64 36.91,-56.1 63.48,-73.48 208.28,-136.26 457.03,-215.18 708.19,-227.82zm285.63 2673.36c41.68,-62.25 61.42,-90.07 91.56,-160.44l44.61 -108.78c26.65,-71.67 47.98,-158.54 66.59,-234.72 5.22,-21.38 15.85,-64.47 16.37,-87.72 59.07,-1.31 108.13,-33.95 141.9,-66.27l10.74 -11.17c22.3,-24.72 47.06,-61.9 50.05,-97.86l542.34 0c-11.51,21.75 -21.53,48.59 -32.87,71.22 -50.64,101.03 -119.74,207.59 -198.69,288.88 -31.84,32.78 -19.22,33.09 -81.52,82.83 -39.48,31.52 -49.16,48.67 -116.54,97.11 -23.35,16.79 -40.42,29.86 -65.13,44.43 -127.84,75.39 -317.95,169.88 -469.42,182.49zm-586.17 -766.95l558.78 0c22.5,46.89 0.74,30.57 51.52,96.39 22.89,29.67 52.72,45.17 85.43,62.48 -44.09,189.23 -47.23,223.33 -121.28,404.63 -20.68,50.64 -64.81,124.16 -101.88,161.07 -47.28,47.08 -103.8,91.19 -179.23,39.37 -154.19,-105.92 -237.29,-452.11 -273.75,-646.58 -4.82,-25.69 -12.74,-103.07 -19.59,-117.36zm-827.21 0l717.64 0c0,93.27 57.05,323.45 84.48,419.51 37.47,131.23 88.77,238.02 162.04,347.43 -65.05,-1.45 -220.76,-56.94 -283.35,-83.69 -154.25,-65.93 -143.02,-80.19 -237.08,-129.96 13.52,-58.04 21.91,-23.41 21.91,-120.52 0,-106.06 -107.59,-213.65 -213.65,-213.65 -97.11,0 -62.48,8.39 -120.52,21.91 -29.75,-56.23 -55.72,-84.2 -102.26,-177.13 -11.64,-23.24 -18.67,-41.92 -29.22,-63.91zm1495.55 -43.83c0,-181.07 235.56,-164.94 235.56,-5.48 0,62.09 -56.58,112.13 -115.43,114.24 -59.51,2.13 -120.13,-48.89 -120.13,-108.76zm82.17 -241.04c-52.29,12.18 -90.51,30.04 -124.75,61.51 -17.39,15.98 -27.91,31.97 -40.78,52.35 -26,41.15 -12.56,61.44 -37.16,61.44l-558.78 0 -21.91 -383.47c0,-79.55 5.48,-146.4 5.48,-230.08 11.13,-5.34 22.34,-6.52 33.6,-10.23 73.28,-24.15 134.71,-88.01 152.66,-165.08l575.21 0 16.15 186.55c2.55,30.82 -0.83,67.01 0.11,98.5 0.97,32.48 5.66,57.86 5.66,98.43 0,78.47 -5.48,146.71 -5.48,230.08zm-892.95 -345.13l0 219.13c0,58.24 5.52,100.75 5.33,153.54 -0.18,48.84 11.11,97.16 11.11,147.76l-745.04 0c-1.81,-21.77 -16.21,-63.85 -21.98,-87.59 -7.5,-30.86 -14.22,-60.46 -19.54,-95.5 -28.19,-185.58 -24.35,-332.17 18.45,-513.8 7.08,-30.03 20.69,-63.43 23.07,-91.98l580.69 0c16.89,72.51 82.16,147.75 153.39,164.35 0,41.79 -5.48,61.09 -5.48,104.09zm991.56 -268.43l745.04 0c1.12,13.49 33.15,127.98 41.52,183.09 56.49,371.96 -40.15,544.4 -41.52,605.78l-586.17 0c-4.48,-53.87 -52.93,-107.99 -93.01,-137.07 -21.35,-15.49 -31.59,-16.08 -54.9,-27.27 0,-41.79 5.48,-61.09 5.48,-104.08l0 -213.65c0,-58.24 -5.52,-100.75 -5.33,-153.54 0.19,-49.72 -11.11,-101.87 -11.11,-153.24zm-1035.38 -54.78c0,-62.47 58.05,-120.52 120.52,-120.52 62.47,0 120.52,58.05 120.52,120.52 0,62.37 -58.94,120.52 -120.52,120.52 -62.37,0 -120.52,-58.94 -120.52,-120.52zm909.38 -54.78l-564.25 0c-14.43,-61.93 -71.35,-139.38 -131.48,-153.39 2.98,-35.76 38.23,-171.19 49.25,-213.7 29.55,-113.97 128.89,-371.14 245.7,-411.72 37.64,-13.07 72.01,-8.22 104.16,12.66 218.18,141.72 290.78,753.96 296.62,766.15zm471.13 -449.21c0,-62.47 58.05,-120.52 120.52,-120.52 62.47,0 120.52,58.05 120.52,120.52 0,62.37 -58.94,120.52 -120.52,120.52 -61.46,0 -120.52,-59.06 -120.52,-120.52zm-608.08 -317.74c118.5,2.64 352.09,109.47 463.34,177.61 21.78,13.34 35.29,24.5 57.09,36.04 -13.52,58.04 -21.91,23.41 -21.91,120.52 0,106.06 107.59,213.65 213.65,213.65 97.11,0 62.48,-8.39 120.52,-21.91 29.75,56.23 55.72,84.2 102.26,177.13 11.64,23.24 18.67,41.92 29.22,63.91l-717.65 0c0,-146.32 -92.07,-466.4 -153.3,-602.7 -32.38,-72.08 -50.51,-100.47 -93.22,-164.25z"/>
      <path class="fil0" d="M383.47 454.69c0,81.93 109.56,81.93 109.56,0 0,-66.18 -109.56,-66.18 -109.56,0z"/>
    </g>
  </g>
</svg>
