<?xml version="1.0" encoding="UTF-8"?>
<!DOCTYPE svg PUBLIC "-//W3C//DTD SVG 1.1//EN" "http://www.w3.org/Graphics/SVG/1.1/DTD/svg11.dtd">
<!-- Creator: CorelDRAW 2020 (64-Bit) -->
<svg xmlns="http://www.w3.org/2000/svg" xml:space="preserve" width="135.485mm" height="106.794mm" version="1.1" style="shape-rendering:geometricPrecision; text-rendering:geometricPrecision; image-rendering:optimizeQuality; fill-rule:evenodd; clip-rule:evenodd" viewBox="0 0 1505.28 1186.51"
  xmlns:xlink="http://www.w3.org/1999/xlink"
  xmlns:xodm="http://www.corel.com/coreldraw/odm/2003">
  <defs>
    <style type="text/css">
      <![CDATA[
    .fil0 {fill:black}
   ]]>
    </style>
  </defs>
  <g id="Layer_x0020_1">
    <metadata id="CorelCorpID_0Corel-Layer"/>
    <path class="fil0" d="M759.29 1007.11l181.42 0.01 45.47 130.5 -273.1 -0.32 46.21 -130.19zm-677.14 -653.99c25.67,-8.23 256.12,-3.05 302.99,-3.06 56.02,-0 93.24,-0.96 93.51,59.85l-0.07 608.71c0,49.57 9.72,100.99 -33.53,115.71 -23.66,8.05 -259.34,3.27 -303.94,3.27 -54.66,0 -93.68,0.69 -94.16,-60.07l0.07 -608.69c0,-47.84 -10.03,-101.26 35.12,-115.73zm441.17 444.41l934.93 0 0 94.68c0,43.99 -23.66,67.82 -67.63,67.83l-864.96 -0.01 -2.34 -162.49zm-280.44 -495.12c-4.91,-31.5 -0.98,-100.85 -0.98,-136.38 0,-45.86 -7.25,-84.99 25.71,-108.68 22.74,-16.34 93.1,-10.31 126.36,-10.31l952.56 0c49.44,0 84.65,-5.83 104.8,31.89 12.03,22.53 6.93,97.53 6.93,128.25 0,91.14 0,182.28 0,273.42 0,56.63 2.72,226.92 -0.59,269.9l-931.29 0c-7.94,-85.11 7.52,-307.19 -2.11,-364.94 -19.54,-117.22 -158.86,-74.56 -281.39,-83.16zm-242.88 83.58l0 719.32c22,37.05 23.8,79.55 117.6,79.34 64.68,-0.14 129.36,-0.02 194.04,-0.02 57,0 134.26,11.03 175.05,-20.31 48.11,-36.96 36.87,-84.82 39.19,-157.26l183.02 0 -40.42 115.49c-4.07,11.23 -1.79,10.07 -9.92,15.07 -23.99,0 -90.38,-6.12 -102.8,7.53 -11.25,12.37 -4.99,31.56 7.28,36.8 14.96,6.39 459.2,2.69 513,2.69 14.02,0 43.49,1.57 55.71,-0.97 16.89,-3.51 24.34,-23.01 13.46,-37.24 -11.98,-15.67 -81.95,-8.8 -104.45,-8.8 -8.25,-2.89 -45.74,-115.83 -49.54,-130.28 97.49,-3.52 201.26,-0.28 299.44,-0.28 36.88,0 113.92,4.2 143.85,-6.26 56.78,-19.84 60.71,-62.96 70.77,-80.41l0 -832.91c-6.56,-11.72 -10.42,-28.78 -17.3,-39.41 -25.12,-38.76 -63.66,-48.12 -112.06,-48.04l-1061.34 -0.02c-36.58,0.01 -60.03,7.86 -82.36,24.93 -69.19,52.87 -22.3,211.85 -39.12,277.94 -64.33,-0.1 -135.39,-11.69 -171.83,37.32 -13.93,18.74 -11.85,26.88 -21.27,45.81z"/>
    <path class="fil0" d="M649.5 565.87c14.48,-9.43 48.92,-19.86 67.45,-23.06 11.68,43.28 21.52,63.25 37.85,98.87 -36.8,-9.49 -92.73,-52.82 -105.3,-75.81zm289.82 75.21c15.87,-27.53 28.46,-61.68 37.74,-97.76 18.48,1.41 55.08,15.16 68.77,22.53 -11.77,17.31 -72.67,72.11 -106.51,75.23zm-68.59 -112.6l59.65 4.93c-8.77,42.31 -32.11,98.67 -59.72,115.5l0.07 -120.43zm-47.1 0.23l-0.03 120.34c-11.11,-5.87 -14.76,-11.95 -22.29,-23.07 -17.65,-26.05 -30.71,-60.08 -37.51,-92.67l59.82 -4.61zm-74.67 -106.32l74.51 -0 0.12 58.72 -70.25 4.63 -4.39 -63.35zm122.2 0.01l75.15 0.66 -6.01 63.87 -69.29 -5.47 0.15 -59.06zm122.59 -0.01l112.09 0c0.27,26.52 -12.88,70.28 -26.32,93.89l-6.42 9.4c-14.07,-4.56 -27.31,-11.63 -42.8,-16.98 -12.56,-4.34 -32.46,-8.09 -43.12,-13.43l6.57 -72.89zm-287.24 73.84c-15.73,4.91 -30.76,8.27 -45.35,13.36 -13.5,4.71 -28.19,12.57 -40.82,15.7 -15.72,-19.83 -31.86,-71.97 -32.11,-102.98l112.42 1.29 5.86 72.63zm234.1 -185.54l5.28 64.36 -75.23 -0.36 0.02 -58.08 69.93 -5.92zm-186.53 0.05l69.54 5.22 -0.06 59.21 -75.86 -0.05 6.38 -64.38zm232.43 -10.06c35.53,-6.15 57.41,-19.53 86.58,-28.76 17.21,16.54 30.7,72.94 33.48,103.26l-112.91 -0.07 -7.15 -74.43zm-398.88 74.5c2.94,-34.1 15.28,-79.44 32.71,-102.99 12.16,2.69 28.02,11.22 42.38,16.11 14.66,5 31.43,8.25 44.41,13.59l-5.91 73.07 -113.59 0.23zm283.12 -226.66c23.11,9.18 52.99,77.27 59.47,115.83l-59.55 4.13 0.08 -119.96zm-106.74 115.57c6.16,-39.44 36.22,-103.68 59.33,-115.61l0.28 11.67 0.02 97.02 -0.13 12.12 -59.5 -5.2zm212.71 -9.99c-11.62,-54.04 -23.12,-61.92 -36.29,-97.88 49.86,15.2 74.81,43.72 104.81,74.5 -10.49,9.03 -51.06,22.76 -68.52,23.38zm-305.32 -48.68c20.24,-18.14 56.81,-40.9 83.06,-49.91 -12.83,33.6 -28.57,55.91 -36.93,99.3 -14.82,-2.42 -48.98,-12.24 -62.99,-20.23 -6.63,-3.77 -2.86,-1.62 -5.49,-3.87l22.35 -25.3zm133.8 -111.34c-174.04,25.8 -288.58,185.41 -262.66,349.52 24.5,155.1 164.05,284.06 347.58,260.03 152.59,-19.98 287,-166.92 261.96,-346.16 -21.43,-153.39 -164.59,-290.42 -346.88,-263.39z"/>
    <path class="fil0" d="M150.64 379.82c-27.32,6.11 -24.66,38.59 -3.18,44.82 11.8,3.43 221.22,2.69 231.32,-0.06 21.81,-5.95 20.84,-38.41 -1.55,-44.55l-226.59 -0.21z"/>
    <path class="fil0" d="M221.1 1089.19c2.79,21.13 24.69,19.58 46.57,19.51 20.34,-0.07 38.29,-3.19 37.02,-25.02 -1.36,-23.35 -23.69,-22.55 -46.02,-22.45 -21.88,0.09 -40.78,3.59 -37.56,27.96z"/>
  </g>
</svg>
